<svg width="910" height="295" viewBox="0 0 910 295" fill="none" xmlns="http://www.w3.org/2000/svg">
<rect x="0.52066" y="0.015625" width="50" height="50" rx="8" fill="white" fill-opacity="0.8"/>
<rect x="63.5207" y="0.015625" width="50" height="50" rx="8" fill="white" fill-opacity="0.8"/>
<rect x="123.521" y="0.015625" width="50" height="50" rx="8" fill="white" fill-opacity="0.8"/>
<rect x="185.021" y="0.015625" width="50" height="50" rx="8" fill="white" fill-opacity="0.8"/>
<rect x="246.521" y="0.015625" width="50" height="50" rx="8" fill="white" fill-opacity="0.8"/>
<rect x="308.021" y="0.015625" width="50" height="50" rx="8" fill="white" fill-opacity="0.8"/>
<rect x="369.521" y="0.015625" width="50" height="50" rx="8" fill="white" fill-opacity="0.8"/>
<rect x="431.021" y="0.015625" width="50" height="50" rx="8" fill="white" fill-opacity="0.8"/>
<rect x="492.521" y="0.015625" width="50" height="50" rx="8" fill="white" fill-opacity="0.8"/>
<rect x="554.021" y="0.015625" width="50" height="50" rx="8" fill="white" fill-opacity="0.8"/>
<rect x="615.521" y="0.015625" width="50" height="50" rx="8" fill="white" fill-opacity="0.8"/>
<rect x="677.021" y="0.015625" width="50" height="50" rx="8" fill="white" fill-opacity="0.8"/>
<rect x="738.521" y="0.015625" width="50" height="50" rx="8" fill="white" fill-opacity="0.8"/>
<rect x="800.021" y="0.015625" width="50" height="50" rx="8" fill="white" fill-opacity="0.8"/>
<rect x="859.521" y="0.015625" width="50" height="50" rx="8" fill="white" fill-opacity="0.8"/>
<rect x="0.52066" y="61.0156" width="78" height="50" rx="8" fill="white" fill-opacity="0.8"/>
<rect x="92.5207" y="61.0156" width="50" height="50" rx="8" fill="white" fill-opacity="0.8"/>
<rect x="154.021" y="61.0156" width="50" height="50" rx="8" fill="white" fill-opacity="0.8"/>
<rect x="215.521" y="61.0156" width="50" height="50" rx="8" fill="white" fill-opacity="0.8"/>
<rect x="277.021" y="61.0156" width="50" height="50" rx="8" fill="white" fill-opacity="0.8"/>
<rect x="338.521" y="61.0156" width="50" height="50" rx="8" fill="white" fill-opacity="0.8"/>
<rect x="400.021" y="61.0156" width="50" height="50" rx="8" fill="white" fill-opacity="0.8"/>
<rect x="461.521" y="61.0156" width="50" height="50" rx="8" fill="white" fill-opacity="0.8"/>
<rect x="523.021" y="61.0156" width="50" height="50" rx="8" fill="white" fill-opacity="0.8"/>
<rect x="584.521" y="61.0156" width="50" height="50" rx="8" fill="white" fill-opacity="0.8"/>
<rect x="646.021" y="61.0156" width="50" height="50" rx="8" fill="white" fill-opacity="0.8"/>
<rect x="707.521" y="61.0156" width="50" height="50" rx="8" fill="white" fill-opacity="0.8"/>
<rect x="769.021" y="61.0156" width="50" height="50" rx="8" fill="white" fill-opacity="0.8"/>
<rect x="830.521" y="61.0156" width="79" height="50" rx="8" fill="white" fill-opacity="0.8"/>
<rect x="0.52066" y="122.016" width="96.1057" height="50" rx="8" fill="white" fill-opacity="0.8"/>
<rect x="107.638" y="122.016" width="50.0551" height="50" rx="8" fill="white" fill-opacity="0.8"/>
<rect x="169.206" y="122.016" width="50.0551" height="50" rx="8" fill="white" fill-opacity="0.8"/>
<rect x="230.774" y="122.016" width="50.0551" height="50" rx="8" fill="white" fill-opacity="0.8"/>
<rect x="292.342" y="122.016" width="50.0551" height="50" rx="8" fill="white" fill-opacity="0.8"/>
<rect x="353.909" y="122.016" width="50.0551" height="50" rx="8" fill="white" fill-opacity="0.8"/>
<rect x="415.477" y="122.016" width="50.0551" height="50" rx="8" fill="white" fill-opacity="0.8"/>
<rect x="477.045" y="122.016" width="50.0551" height="50" rx="8" fill="white" fill-opacity="0.8"/>
<rect x="538.613" y="122.016" width="50.0551" height="50" rx="8" fill="white" fill-opacity="0.8"/>
<rect x="600.18" y="122.016" width="50.0551" height="50" rx="8" fill="white" fill-opacity="0.8"/>
<rect x="661.748" y="122.016" width="50.0551" height="50" rx="8" fill="white" fill-opacity="0.8"/>
<rect x="723.316" y="122.016" width="50.0551" height="50" rx="8" fill="white" fill-opacity="0.8"/>
<rect x="784.383" y="122.016" width="125.138" height="50" rx="8" fill="white" fill-opacity="0.8"/>
<rect x="0.52066" y="183.016" width="126" height="50" rx="8" fill="white" fill-opacity="0.8"/>
<rect x="138.521" y="183.016" width="50.0551" height="50" rx="8" fill="white" fill-opacity="0.8"/>
<rect x="200.088" y="183.016" width="50.0551" height="50" rx="8" fill="white" fill-opacity="0.8"/>
<rect x="261.656" y="183.016" width="50.0551" height="50" rx="8" fill="white" fill-opacity="0.8"/>
<rect x="323.224" y="183.016" width="50.0551" height="50" rx="8" fill="white" fill-opacity="0.8"/>
<rect x="384.792" y="183.016" width="50.0551" height="50" rx="8" fill="white" fill-opacity="0.8"/>
<rect x="446.359" y="183.016" width="50.0551" height="50" rx="8" fill="white" fill-opacity="0.8"/>
<rect x="507.927" y="183.016" width="50.0551" height="50" rx="8" fill="white" fill-opacity="0.8"/>
<rect x="569.495" y="183.016" width="50.0551" height="50" rx="8" fill="white" fill-opacity="0.8"/>
<rect x="631.062" y="183.016" width="50.0551" height="50" rx="8" fill="white" fill-opacity="0.8"/>
<rect x="754.199" y="183.016" width="94" height="50" rx="8" fill="white" fill-opacity="0.8"/>
<rect x="692.631" y="183.016" width="50.0551" height="50" rx="8" fill="white" fill-opacity="0.8"/>
<rect x="859.521" y="183.016" width="50" height="50" rx="8" fill="white" fill-opacity="0.8"/>
<rect x="94.2863" y="244.016" width="50" height="50" rx="8" fill="white" fill-opacity="0.8"/>
<rect x="157.694" y="244.016" width="76.4306" height="50" rx="8" fill="white" fill-opacity="0.8"/>
<rect x="616.274" y="244.016" width="76.4306" height="50" rx="8" fill="white" fill-opacity="0.8"/>
<rect x="706.112" y="244.016" width="50" height="50" rx="8" fill="white" fill-opacity="0.8"/>
<rect x="246.124" y="244.016" width="358.15" height="50" rx="8" fill="white" fill-opacity="0.8"/>
</svg>
